<?xml version="1.0" encoding="UTF-8" standalone="no"?>
<!-- Created with Inkscape (http://www.inkscape.org/) -->

<svg
   xmlns:dc="http://purl.org/dc/elements/1.1/"
   xmlns:cc="http://creativecommons.org/ns#"
   xmlns:rdf="http://www.w3.org/1999/02/22-rdf-syntax-ns#"
   xmlns:svg="http://www.w3.org/2000/svg"
   xmlns="http://www.w3.org/2000/svg"
   xmlns:sodipodi="http://sodipodi.sourceforge.net/DTD/sodipodi-0.dtd"
   xmlns:inkscape="http://www.inkscape.org/namespaces/inkscape"
   width="90mm"
   height="90mm"
   viewBox="0 0 90 90"
   version="1.1"
   id="svg8"
   inkscape:version="0.92.3 (2405546, 2018-03-11)"
   sodipodi:docname="logo.svg"
   inkscape:export-filename="/home/ashwek/AndroidStudioProjects/MirrorText/media/logo.png"
   inkscape:export-xdpi="144.54698"
   inkscape:export-ydpi="144.54698">
  <defs
     id="defs2" />
  <sodipodi:namedview
     id="base"
     pagecolor="#ffffff"
     bordercolor="#666666"
     borderopacity="1.0"
     inkscape:pageopacity="1"
     inkscape:pageshadow="2"
     inkscape:zoom="1.0363534"
     inkscape:cx="30.206893"
     inkscape:cy="143.88906"
     inkscape:document-units="mm"
     inkscape:current-layer="layer1"
     showgrid="false"
     inkscape:window-width="1366"
     inkscape:window-height="704"
     inkscape:window-x="0"
     inkscape:window-y="27"
     inkscape:window-maximized="1" />
  <metadata
     id="metadata5">
    <rdf:RDF>
      <cc:Work
         rdf:about="">
        <dc:format>image/svg+xml</dc:format>
        <dc:type
           rdf:resource="http://purl.org/dc/dcmitype/StillImage" />
        <dc:title></dc:title>
      </cc:Work>
    </rdf:RDF>
  </metadata>
  <g
     inkscape:label="Layer 1"
     inkscape:groupmode="layer"
     id="layer1"
     transform="translate(0,-207)">
    <rect
       style="fill:#ffffff;fill-opacity:1;stroke:#ffffff;stroke-width:0.67575496;stroke-miterlimit:4;stroke-dasharray:none"
       id="rect111"
       width="89.324249"
       height="89.324242"
       x="0.33787748"
       y="207.33788"
       ry="19.658268" />
    <g
       aria-label="Mirror
Text"
       transform="matrix(0.96029477,0,0,1.0413469,-1.051343e-5,0)"
       style="font-style:normal;font-variant:normal;font-weight:bold;font-stretch:normal;font-size:21.35120964px;line-height:1.25;font-family:sans-serif;-inkscape-font-specification:'sans-serif, Bold';font-variant-ligatures:normal;font-variant-caps:normal;font-variant-numeric:normal;font-feature-settings:normal;text-align:start;letter-spacing:0px;word-spacing:0px;writing-mode:lr-tb;text-anchor:start;fill:#000000;fill-opacity:1;stroke:none;stroke-width:0.53377914"
       id="text115">
      <path
         id="path143"
         style="font-style:normal;font-variant:normal;font-weight:bold;font-stretch:normal;font-size:21.35120964px;font-family:sans-serif;-inkscape-font-specification:'sans-serif, Bold';font-variant-ligatures:normal;font-variant-caps:normal;font-variant-numeric:normal;font-feature-settings:normal;text-align:center;writing-mode:lr-tb;text-anchor:middle;stroke-width:0.53377885"
         d="m 27.06281,248.30687 v 3.31527 h -3.846967 v 2.6689 h 3.846967 v 4.95207 q 0,0.81318 -0.323187,1.10509 -0.323187,0.28148 -1.282322,0.28148 h -1.91827 v 2.66891 h 3.200592 q 2.210182,0 3.13804,-0.91744 0.917435,-0.92786 0.917435,-3.13804 v -4.95207 h 1.855718 v -2.6689 h -1.855718 v -3.31527 z m 14.887448,9.01796 4.211854,-5.70269 h -3.951219 l -2.387414,3.46123 -2.418689,-3.46123 h -3.951221 l 4.211856,5.68184 -4.420362,5.99461 h 3.951219 l 2.627197,-3.69059 2.59592,3.69059 h 3.951221 z m 5.765236,0.10426 v 1.06339 h 8.726046 q -0.135531,1.3136 -0.94871,1.9704 -0.81318,0.6568 -2.272733,0.6568 -1.178069,0 -2.408264,-0.34404 -1.240621,-0.35446 -2.543793,-1.06339 v 2.87741 q 1.324023,0.50042 2.648046,0.75063 1.324025,0.26063 2.648049,0.26063 3.169316,0 4.931206,-1.60551 1.751464,-1.61594 1.751464,-4.52462 0,-2.85656 -1.720188,-4.49335 -1.730614,-1.63678 -4.753975,-1.63678 -2.752301,0 -4.399512,1.65763 -1.657636,1.65764 -1.657636,4.4308 z m 3.836541,-1.24062 q 0,-1.06339 0.625523,-1.70977 0.615098,-0.6568 1.615934,-0.6568 1.084241,0 1.76189,0.6151 0.67765,0.60467 0.844457,1.75147 z m 21.226081,-8.455 H 58.432788 v 3.03379 h 5.160565 v 12.53133 h 4.013772 v -12.53133 h 5.170991 z M 10.413469,228.11288 q 0.489993,-0.22936 0.979986,-0.33362 0.479567,-0.11468 0.969561,-0.11468 1.438702,0 2.220606,0.92786 0.771478,0.91744 0.771478,2.63763 v 5.3795 h 3.732288 V 224.93313 H 15.3551 v 1.91827 q -0.719351,-1.14679 -1.64721,-1.66806 -0.938285,-0.5317 -2.241457,-0.5317 -0.187656,0 -0.40659,0.0209 -0.218934,0.0104 -0.635948,0.0625 z m 17.796132,-0.79233 q 1.24062,0 1.89742,0.89658 0.646374,0.88616 0.646374,2.56465 0,1.67849 -0.646374,2.57507 -0.6568,0.88616 -1.89742,0.88616 -1.21977,0 -1.866144,-0.88616 -0.646374,-0.89658 -0.646374,-2.57507 0,-1.67849 0.646374,-2.56465 0.646374,-0.89658 1.866144,-0.89658 z m 0,-2.66891 q -3.012936,0 -4.701848,1.62637 -1.699338,1.62636 -1.699338,4.50377 0,2.87741 1.699338,4.50377 1.688912,1.62636 4.701848,1.62636 3.023361,0 4.733124,-1.62636 1.699337,-1.62636 1.699337,-4.50377 0,-2.87741 -1.699337,-4.50377 -1.709763,-1.62637 -4.733124,-1.62637 z m 7.433301,3.46124 q 0.489993,-0.22936 0.979986,-0.33362 0.479567,-0.11468 0.969561,-0.11468 1.438702,0 2.220606,0.92786 0.771478,0.91744 0.771478,2.63763 v 5.3795 h 3.732288 v -11.67644 h -3.732288 v 1.91827 q -0.719351,-1.14679 -1.64721,-1.66806 -0.938285,-0.5317 -2.241457,-0.5317 -0.187658,0 -0.406591,0.0209 -0.218933,0.0104 -0.635948,0.0625 z m 10.550487,0 q 0.489993,-0.22936 0.979986,-0.33362 0.479567,-0.11468 0.969561,-0.11468 1.438702,0 2.220606,0.92786 0.771478,0.91744 0.771478,2.63763 v 5.3795 h 3.732288 V 224.93313 H 51.13502 v 1.91827 q -0.719351,-1.14679 -1.64721,-1.66806 -0.938285,-0.5317 -2.241457,-0.5317 -0.187656,0 -0.40659,0.0209 -0.218934,0.0104 -0.635948,0.0625 z m 16.013388,-3.17975 H 58.47449 v 11.67644 h 3.732287 z m 0,-4.54548 H 58.47449 v 3.04421 h 3.732287 z m 21.100977,0.6568 h -5.108439 l -3.544629,8.3299 -3.565482,-8.3299 h -5.098013 v 15.56512 h 3.79484 v -11.38453 l 3.586332,8.39244 h 2.543793 l 3.586332,-8.39244 v 11.38453 h 3.805266 z"
         inkscape:connector-curvature="0" />
    </g>
  </g>
</svg>
